# xmcd
#
# Track frame offsets:
#	150
#	14420
#	26652
#	41500
#	54820
#	68992
#	83242
#	96050
#	108337
#	122612
#	135422
#	149850
#	161232
#	174375
#	188022
#	199885
#
# Disc length: 2860 seconds
#
# Revision: 0
# Processed by: cddbd v1.5.2PL0 Copyright (c) Steve Scherf et al.
# Submitted via: EasyCDDAExtractor 11.1.0.1
#
DISCID=db0b2a10
DTITLE=Various Artist - Classic Nostalgia Collectibles 1942-1965 - Disc 2
DYEAR=1996
DGENRE=Blues
TTITLE0=The Ink Spots And Ella Fitzgerald - Into Each Life Some Rain Must Fall
TTITLE1=Louis Jordan - Caldonia
TTITLE2=Billie Holiday - Lover Man (Oh, Where Can You Be)
TTITLE3=Lucky Millinder - Who Threw The Whiskey In The Well
TTITLE4=Buddy Johnson - That's The Stuff You Gotta Watch
TTITLE5=The Andrews Sisters - Rum And Coca Cola
TTITLE6=Louis Jordan - Buzz Me
TTITLE7=Marie Adams - I'm Gonna Play The Honky Tonks
TTITLE8=Willie Mabon - I Don't Know
TTITLE9=The Coronets - Nadine
TTITLE10=The Moonglows - Sincerely
TTITLE11=Johnny Ace - Pledging My Love
TTITLE12=Al Hibbler - Unchained Melody
TTITLE13=Etta James - At Last
TTITLE14=Etta James - That's The Way Love Is
TTITLE15=Billy Stewart - Sitting In The Park
EXTD=
EXTT0=
EXTT1=
EXTT2=
EXTT3=
EXTT4=
EXTT5=
EXTT6=
EXTT7=
EXTT8=
EXTT9=
EXTT10=
EXTT11=
EXTT12=
EXTT13=
EXTT14=
EXTT15=
PLAYORDER=
